<svg width="42" height="35" viewBox="0 0 42 35" fill="none" xmlns="http://www.w3.org/2000/svg">
<g clip-path="url(#clip0_57_14)">
<path d="M10.9989 0.192661C10.1319 1.54128 8.91173 3.80505 9.00806 3.90138C9.07228 3.9656 13.5356 4.04587 18.914 4.06193C27.8406 4.09404 28.6915 4.11009 28.7397 4.35092C28.7718 4.51147 28.4828 5.1055 28.1296 5.69954C27.7604 6.30963 27.3911 6.95184 27.3108 7.12844C27.2145 7.3211 27.0539 7.6422 26.9255 7.85092C26.8131 8.07569 26.7489 8.31651 26.781 8.38073C26.9094 8.58945 35.9966 8.52523 35.9966 8.31651C35.9966 8.22018 35.7879 7.7867 35.5149 7.35321C35.242 6.93578 35.0333 6.51835 35.0333 6.43807C35.0333 6.37385 34.8246 6.00459 34.5516 5.65138C34.2948 5.28211 34.07 4.9289 34.07 4.88073C34.07 4.81651 33.7649 4.25459 33.3796 3.62844C32.9943 3.00229 32.6411 2.37615 32.5769 2.24771C32.5126 2.11927 32.32 1.78211 32.1434 1.52523C31.9668 1.25229 31.742 0.866973 31.6617 0.642202C31.5654 0.433486 31.3888 0.19266 31.2925 0.12844C31.1801 0.0642201 26.6044 0 21.1136 0C13.2948 0 11.0952 0.0481653 10.9989 0.192661ZM6.03788 8.87844C5.90943 8.95872 5.73283 9.16743 5.6365 9.36009C5.55622 9.55275 5.42778 9.82569 5.33145 9.95413C4.88191 10.6445 3.72595 12.6514 3.72595 12.7477C3.72595 12.8119 3.59751 13.0528 3.4209 13.2936C3.26035 13.5344 2.71448 14.4495 2.20072 15.3326C1.68696 16.2156 1.20531 16.9541 1.12503 16.9862C0.900259 17.0826 0.980535 17.5642 1.3498 18.1422C2.02411 19.2018 2.10439 19.3463 2.26494 19.6995C2.55393 20.3417 3.2443 21.3532 3.38879 21.3532C3.46907 21.3532 3.70989 21 3.93466 20.5826C4.72136 19.0894 6.61586 15.7982 7.11356 15.0596C7.29017 14.8188 7.41861 14.578 7.41861 14.5298C7.41861 14.4817 7.96448 13.5344 8.62274 12.4266C9.28099 11.3188 9.82687 10.3716 9.82687 10.3073C9.82687 10.2592 10.0195 9.93807 10.2443 9.60092C10.4851 9.26376 10.6296 8.92661 10.5654 8.86238C10.3888 8.70183 6.32687 8.71789 6.03788 8.87844ZM16.7626 8.83028C16.0402 8.91055 16.0402 8.91055 15.2695 10.4358C15.0769 10.8372 14.6755 11.5115 14.4026 11.961C14.1136 12.3945 13.648 13.1972 13.359 13.7271C13.07 14.2569 12.7489 14.8028 12.6526 14.9312C12.5562 15.0596 12.3315 15.4289 12.1548 15.7339C11.5929 16.7454 11.1273 17.5642 10.7902 18.1422C10.2122 19.1216 9.79476 19.844 7.93237 23.0872L6.1021 26.25L6.39109 26.8119C6.55164 27.117 6.98512 27.8716 7.35439 28.4977C7.7076 29.1078 8.06081 29.7821 8.12503 29.9748C8.18925 30.1835 8.30164 30.344 8.36586 30.344C8.43008 30.344 8.63879 30.6491 8.84751 31.0183C9.04017 31.4037 9.34521 31.9174 9.52182 32.1904C9.68237 32.4472 9.9232 32.8807 10.0516 33.1537C10.1801 33.4105 10.5012 33.9404 10.7741 34.3257L11.2718 35H31.1961L31.4691 34.5183C31.6136 34.2615 31.7902 34.0367 31.8704 34.0367C31.9347 34.0367 31.9828 33.9564 31.9828 33.8601C31.9828 33.7638 32.2237 33.2661 32.5287 32.7683C32.8177 32.2706 33.2672 31.5 33.5081 31.0665C33.7489 30.617 34.4393 29.4289 35.0333 28.4174C38.6938 22.172 38.6296 22.3005 38.3888 22.1399C38.2604 22.0596 37.9553 22.0275 37.6984 22.0757C37.4415 22.1239 36.4943 22.156 35.5952 22.156H33.9415L32.9461 23.8739C32.4003 24.8372 31.3406 26.6353 30.6021 27.8876C29.8636 29.1399 29.2535 30.2317 29.2535 30.328C29.2535 30.8096 28.5149 30.8578 21.0172 30.8417C16.859 30.8257 13.4553 30.8096 13.4393 30.7775C13.0218 30.2477 10.9507 26.5069 10.9507 26.3142C10.9507 26.1537 11.2718 25.4794 11.6732 24.8372C12.0746 24.1789 12.3957 23.5849 12.3957 23.5367C12.3957 23.4725 12.5723 23.1835 12.797 22.8945C13.0218 22.6055 13.1984 22.3165 13.1984 22.2523C13.1984 22.1881 13.5677 21.5298 14.0012 20.7752C14.4507 20.0206 14.8039 19.3945 14.8039 19.3624C14.8039 19.2982 16.6342 16.1674 17.2925 15.1239C17.5333 14.7546 17.9026 14.1124 18.1113 13.695C18.336 13.2775 18.8819 12.3463 19.3154 11.6078C19.7489 10.8693 20.1021 10.2271 20.1021 10.1628C20.1021 10.1147 20.2948 9.82569 20.5195 9.52064C20.7443 9.2156 20.8888 8.92661 20.8406 8.86238C20.7122 8.73394 17.742 8.71789 16.7626 8.83028Z" fill="white"/>
<path d="M24.0361 11.4656C23.8113 11.7225 23.4421 12.2844 23.2173 12.7018C22.6875 13.7454 22.2058 14.6124 18.2242 21.4679C17.871 22.0459 17.598 22.5917 17.598 22.656C17.598 22.7202 17.4375 22.945 17.2609 23.1376C16.8274 23.6032 16.9558 24.0849 17.4856 23.9404C17.6783 23.8922 19.8297 23.844 22.2701 23.844H26.6852L27.0384 23.1537C27.4879 22.2867 28.0499 21.3073 28.4191 20.7615C28.9168 20.0069 28.7724 19.9427 26.4123 19.9266C24.309 19.9106 24.2609 19.9106 24.2127 19.5573C24.1806 19.3326 24.4857 18.6422 24.9994 17.7913C25.465 17.0206 25.9788 16.1216 26.1393 15.7844L26.4283 15.1743H33.9742C38.7104 15.1743 41.5201 15.1101 41.5201 15.0138C41.5201 14.8372 39.6577 11.6743 39.3045 11.2729C39.0797 11.0161 38.5499 11 31.7586 11L24.4535 11.0161L24.0361 11.4656Z" fill="white"/>
</g>
<defs>
<clipPath id="clip0_57_14">
<rect width="41.7661" height="35" fill="white"/>
</clipPath>
</defs>
</svg>
