<svg width="31" height="18" viewBox="0 0 31 18" fill="none" xmlns="http://www.w3.org/2000/svg">
<path d="M0 1.25C0 0.559644 0.559644 0 1.25 0H29.75C30.4404 0 31 0.559644 31 1.25C31 1.94036 30.4404 2.5 29.75 2.5H1.25C0.559645 2.5 0 1.94036 0 1.25Z" fill="white"/>
<path d="M0 9.25C0 8.55964 0.559644 8 1.25 8H29.6562C30.3466 8 30.9062 8.55964 30.9062 9.25C30.9062 9.94036 30.3466 10.5 29.6562 10.5H1.25C0.559645 10.5 0 9.94036 0 9.25Z" fill="white"/>
<path d="M0.09375 16.5C0.09375 15.8096 0.653394 15.25 1.34375 15.25H29.75C30.4404 15.25 31 15.8096 31 16.5C31 17.1904 30.4404 17.75 29.75 17.75H1.34375C0.653395 17.75 0.09375 17.1904 0.09375 16.5Z" fill="white"/>
</svg>
